<svg width="393" height="256" viewBox="0 0 393 256" fill="none" xmlns="http://www.w3.org/2000/svg">
<path d="M344.384 233.117C357.023 220.478 357.023 199.988 344.384 187.349C331.746 174.711 311.255 174.711 298.617 187.349C285.979 199.988 285.979 220.478 298.617 233.117C311.255 245.755 331.746 245.755 344.384 233.117Z" fill="#2F2E41"/>
<path d="M321.321 213.21C327.285 211.89 331.05 205.984 329.729 200.02C328.409 194.056 322.504 190.291 316.54 191.611C310.576 192.932 306.811 198.837 308.131 204.801C309.451 210.765 315.356 214.53 321.321 213.21Z" fill="white"/>
<path d="M315.247 203.154C317.235 202.714 318.49 200.746 318.05 198.757C317.61 196.769 315.641 195.514 313.653 195.955C311.665 196.395 310.41 198.363 310.85 200.351C311.29 202.339 313.259 203.594 315.247 203.154Z" fill="#3F3D56"/>
<path d="M320.222 188.354C306.987 188.33 297.696 185.966 297.718 173.975C297.74 161.984 308.488 152.283 321.723 152.308C334.958 152.332 345.669 162.073 345.647 174.064C345.625 186.055 333.458 188.379 320.222 188.354Z" fill="#68738B"/>
<path d="M372.224 215.642C368.428 228.812 357.343 238.031 345.78 245.863C344.166 246.957 342.551 248.025 340.935 249.069C340.924 249.073 340.913 249.084 340.902 249.088C340.824 249.138 340.746 249.188 340.674 249.239C340.34 249.454 340.007 249.669 339.676 249.881L339.858 249.963C339.858 249.963 340.036 250.058 339.841 249.978C339.783 249.954 339.722 249.932 339.664 249.907C332.947 247.198 326.11 244.289 320.962 239.214C315.622 233.944 312.502 225.678 315.393 218.754C315.773 217.847 316.253 216.986 316.825 216.185C317.059 215.849 317.312 215.528 317.575 215.213C319.17 213.266 321.254 211.779 323.615 210.906C325.975 210.032 328.525 209.802 331.003 210.241C333.481 210.679 335.798 211.77 337.715 213.4C339.632 215.031 341.08 217.143 341.91 219.519C342.76 211.609 336.238 204.984 329.962 200.095C323.682 195.209 316.548 189.888 315.334 182.023C314.656 177.646 316.177 173.405 318.95 170.001C319.035 169.897 319.121 169.794 319.21 169.694C322.584 165.728 327.33 163.182 332.5 162.563C342.129 161.563 351.481 166.659 358.476 173.353C369.734 184.124 376.54 200.668 372.224 215.642Z" fill="#E6E6E6"/>
<path d="M354.126 198.416C355.974 201.291 357.393 204.42 358.338 207.705C359.137 210.64 359.492 213.679 359.393 216.719C359.135 222.976 357.378 229.08 354.271 234.517C351.93 238.642 349.077 242.454 345.78 245.863C344.166 246.957 342.551 248.025 340.935 249.069C340.924 249.073 340.913 249.084 340.902 249.088C340.824 249.138 340.746 249.188 340.674 249.239C340.34 249.454 340.007 249.669 339.676 249.881C339.676 249.881 340.036 250.058 339.841 249.978C339.783 249.954 339.722 249.932 339.664 249.907C340.266 244.971 339.676 239.963 337.944 235.302C336.212 230.641 333.388 226.463 329.708 223.118C326.02 219.824 321.605 217.449 316.825 216.185C317.059 215.849 317.312 215.528 317.575 215.213C319.421 215.731 321.218 216.411 322.945 217.245C329.117 220.209 334.171 225.082 337.359 231.142C340.219 236.644 341.45 242.849 340.907 249.027C341.183 248.777 341.46 248.521 341.728 248.268C346.832 243.509 351.366 238.047 354.434 231.743C357.096 226.404 358.404 220.493 358.244 214.529C357.994 208.027 355.403 202.004 351.652 196.761C347.54 191.167 342.684 186.161 337.216 181.883C331.706 177.47 325.677 173.748 319.263 170.799C319.118 170.732 319.005 170.611 318.947 170.463C318.888 170.314 318.889 170.149 318.95 170.001C318.992 169.868 319.086 169.758 319.21 169.694C319.273 169.666 319.342 169.653 319.412 169.656C319.481 169.659 319.549 169.678 319.61 169.711C320.402 170.075 321.188 170.445 321.968 170.83C328.466 174.042 334.54 178.048 340.05 182.758C345.372 187.295 350.382 192.479 354.126 198.416Z" fill="white"/>
<path d="M55.3912 252.143C59.9161 252.143 63.5842 250.767 63.5842 249.071C63.5842 247.374 59.9161 245.998 55.3912 245.998C50.8664 245.998 47.1982 247.374 47.1982 249.071C47.1982 250.767 50.8664 252.143 55.3912 252.143Z" fill="#2F2E41"/>
<path d="M75.0543 251.733C79.5792 251.733 83.2473 250.358 83.2473 248.661C83.2473 246.964 79.5792 245.589 75.0543 245.589C70.5295 245.589 66.8614 246.964 66.8614 248.661C66.8614 250.358 70.5295 251.733 75.0543 251.733Z" fill="#2F2E41"/>
<path d="M101.158 200.093C108.9 195.629 114.041 190.041 112.64 187.61C111.238 185.18 103.826 186.828 96.0839 191.291C88.3417 195.754 83.2012 201.343 84.6024 203.773C86.0035 206.204 93.4157 204.556 101.158 200.093Z" fill="#2F2E41"/>
<path d="M93.89 211.036C96.753 193.394 84.7719 176.771 67.1295 173.908C49.4871 171.045 32.8642 183.026 30.0012 200.669C27.1382 218.311 39.1193 234.934 56.7617 237.797C74.4041 240.66 91.027 228.679 93.89 211.036Z" fill="#2F2E41"/>
<path d="M57.0298 231.251H47.1982V248.866H57.0298V231.251Z" fill="#2F2E41"/>
<path d="M76.6929 231.251H66.8614V248.866H76.6929V231.251Z" fill="#2F2E41"/>
<path d="M62.7649 208.72C68.8734 208.72 73.8254 203.768 73.8254 197.66C73.8254 191.551 68.8734 186.599 62.7649 186.599C56.6563 186.599 51.7044 191.551 51.7044 197.66C51.7044 203.768 56.6563 208.72 62.7649 208.72Z" fill="white"/>
<path d="M62.7649 201.346C64.8011 201.346 66.4517 199.696 66.4517 197.66C66.4517 195.623 64.8011 193.973 62.7649 193.973C60.7287 193.973 59.078 195.623 59.078 197.66C59.078 199.696 60.7287 201.346 62.7649 201.346Z" fill="#3F3D56"/>
<path d="M30.5531 175.757C27.94 164.054 36.2931 152.229 49.2102 149.345C62.1273 146.46 74.717 153.609 77.3301 165.312C79.9432 177.014 71.3826 181.331 58.4655 184.215C45.5484 187.099 33.1662 187.459 30.5531 175.757Z" fill="#E6E6E6"/>
<path d="M40.115 197.77C41.3172 195.236 35.7462 190.076 27.6717 186.247C19.5972 182.417 12.077 181.367 10.8748 183.902C9.67257 186.437 15.2436 191.596 23.3181 195.426C31.3925 199.256 38.9128 200.305 40.115 197.77Z" fill="#2F2E41"/>
<path d="M46.0493 217.528C46.0493 220.695 54.2048 226.949 63.2546 226.949C72.3043 226.949 80.7894 218.032 80.7894 214.865C80.7894 211.698 72.3043 215.479 63.2546 215.479C54.2049 215.479 46.0493 214.36 46.0493 217.528Z" fill="white"/>
<path d="M174.79 252.143C179.315 252.143 182.983 250.767 182.983 249.071C182.983 247.374 179.315 245.998 174.79 245.998C170.265 245.998 166.597 247.374 166.597 249.071C166.597 250.767 170.265 252.143 174.79 252.143Z" fill="#2F2E41"/>
<path d="M155.127 251.733C159.652 251.733 163.32 250.358 163.32 248.661C163.32 246.964 159.652 245.589 155.127 245.589C150.602 245.589 146.934 246.964 146.934 248.661C146.934 250.358 150.602 251.733 155.127 251.733Z" fill="#2F2E41"/>
<path d="M145.579 203.773C146.98 201.343 141.84 195.754 134.097 191.291C126.355 186.828 118.943 185.18 117.542 187.61C116.141 190.041 121.281 195.629 129.023 200.093C136.766 204.556 144.178 206.204 145.579 203.773Z" fill="#2F2E41"/>
<path d="M168.236 238.215C186.109 238.215 200.598 223.726 200.598 205.853C200.598 187.979 186.109 173.49 168.236 173.49C150.363 173.49 135.874 187.979 135.874 205.853C135.874 223.726 150.363 238.215 168.236 238.215Z" fill="#2F2E41"/>
<path d="M182.983 231.251H173.152V248.866H182.983V231.251Z" fill="#2F2E41"/>
<path d="M163.32 231.251H153.488V248.866H163.32V231.251Z" fill="#2F2E41"/>
<path d="M160.654 208.72C166.762 208.72 171.714 203.768 171.714 197.66C171.714 191.551 166.762 186.599 160.654 186.599C154.545 186.599 149.593 191.551 149.593 197.66C149.593 203.768 154.545 208.72 160.654 208.72Z" fill="white"/>
<path d="M157.989 198.754C159.433 197.311 159.442 194.978 158.009 193.543C156.576 192.109 154.243 192.116 152.799 193.559C151.354 195.003 151.345 197.336 152.778 198.77C154.211 200.204 156.544 200.197 157.989 198.754Z" fill="#3F3D56"/>
<path d="M171.716 184.215C158.799 181.33 150.238 177.014 152.851 165.312C155.464 153.609 168.054 146.46 180.971 149.345C193.888 152.229 202.241 164.054 199.628 175.757C197.015 187.459 184.633 187.099 171.716 184.215Z" fill="#68738B"/>
<path d="M202.077 230.521C204.789 229.801 205.127 222.215 202.833 213.578C200.539 204.941 196.481 198.523 193.77 199.243C191.058 199.964 190.72 207.549 193.014 216.186C195.308 224.823 199.366 231.241 202.077 230.521Z" fill="#2F2E41"/>
<path d="M160.904 215.48C154.963 215.48 149.392 211.698 149.392 214.865C149.392 218.033 154.963 226.95 160.904 226.95C166.845 226.95 172.2 220.695 172.2 217.528C172.2 214.361 166.845 215.48 160.904 215.48Z" fill="white"/>
<path d="M119.081 152.195H116.207C113.632 152.192 111.164 151.168 109.344 149.347C107.523 147.527 106.499 145.059 106.496 142.484V140.071C106.496 134.095 107.629 129.091 109.862 125.198C112.569 120.671 115.726 116.428 119.287 112.536C121.65 110.159 123.795 107.574 125.695 104.812C127.058 102.666 127.761 100.168 127.718 97.6262C127.718 91.6313 123.813 88.7169 115.778 88.7169C111.321 88.7673 106.892 89.432 102.616 90.6923C100.967 91.163 99.2318 91.2445 97.5461 90.9306C95.8604 90.6166 94.2705 89.9157 92.9017 88.8829C91.5329 87.8502 90.4224 86.5139 89.6577 84.9791C88.8931 83.4443 88.495 81.753 88.495 80.0383V75.154C88.4855 73.0514 89.0862 70.9912 90.2242 69.2231C91.3622 67.455 92.9886 66.055 94.9064 65.1927C102.457 61.9703 110.601 60.3683 118.809 60.4904C127.409 60.4904 135.172 61.9349 141.884 64.7833C148.607 67.6382 153.92 71.664 157.672 76.749C161.414 81.798 163.402 87.9316 163.335 94.2154C163.335 100.963 161.493 106.84 157.86 111.684C154.266 116.478 149.115 121.726 142.549 127.284C139.089 130.161 135.811 133.249 132.732 136.531C130.744 138.673 129.339 141.289 128.651 144.129C128.268 146.389 127.096 148.439 125.344 149.916C123.592 151.392 121.373 152.2 119.081 152.195V152.195Z" fill="#FDB827"/>
<path d="M117.483 197.861H117.104C112.333 197.857 107.758 195.96 104.385 192.585C101.013 189.21 99.118 184.634 99.118 179.863C99.118 175.092 101.013 170.515 104.385 167.141C107.758 163.766 112.333 161.868 117.104 161.865H117.483C119.848 161.864 122.189 162.328 124.374 163.232C126.559 164.135 128.544 165.461 130.217 167.132C131.889 168.804 133.216 170.788 134.121 172.973C135.027 175.157 135.492 177.498 135.492 179.863C135.492 182.227 135.027 184.569 134.121 186.753C133.216 188.937 131.889 190.922 130.217 192.593C128.544 194.265 126.559 195.59 124.374 196.494C122.189 197.398 119.848 197.862 117.483 197.861Z" fill="#FDB827"/>
<path d="M234.447 252.482H0.751434C0.552141 252.482 0.361022 252.403 0.220101 252.262C0.0791796 252.121 0 251.93 0 251.73C0 251.531 0.0791796 251.34 0.220101 251.199C0.361022 251.058 0.552141 250.979 0.751434 250.979H234.447C234.647 250.979 234.838 251.058 234.979 251.199C235.12 251.34 235.199 251.531 235.199 251.73C235.199 251.93 235.12 252.121 234.979 252.262C234.838 252.403 234.647 252.482 234.447 252.482Z" fill="#CCCCCC"/>
<path d="M392.249 252.482H267.511C267.311 252.482 267.12 252.403 266.979 252.262C266.838 252.121 266.759 251.93 266.759 251.73C266.759 251.531 266.838 251.34 266.979 251.199C267.12 251.058 267.311 250.979 267.511 250.979H392.249C392.448 250.979 392.639 251.058 392.78 251.199C392.921 251.34 393 251.531 393 251.73C393 251.93 392.921 252.121 392.78 252.262C392.639 252.403 392.448 252.482 392.249 252.482Z" fill="#CCCCCC"/>
<path d="M314.829 230.533C323.764 230.358 330.963 227.942 330.908 225.137C330.853 222.333 323.565 220.2 314.63 220.375C305.695 220.55 298.497 222.965 298.552 225.77C298.606 228.575 305.894 230.707 314.829 230.533Z" fill="#2F2E41"/>
<path d="M306.706 111.964H287.169C286.173 111.963 285.218 111.566 284.514 110.862C283.809 110.158 283.413 109.203 283.412 108.207V88.6692C283.413 87.6731 283.809 86.7181 284.514 86.0138C285.218 85.3094 286.173 84.9132 287.169 84.912H306.706C307.702 84.9132 308.657 85.3094 309.362 86.0138C310.066 86.7181 310.462 87.6731 310.464 88.6692V108.207C310.462 109.203 310.066 110.158 309.362 110.862C308.657 111.566 307.702 111.963 306.706 111.964ZM287.169 86.4149C286.571 86.4156 285.998 86.6533 285.576 87.0759C285.153 87.4985 284.915 88.0715 284.915 88.6692V108.207C284.915 108.804 285.153 109.377 285.576 109.8C285.998 110.222 286.571 110.46 287.169 110.461H306.706C307.304 110.46 307.877 110.222 308.3 109.8C308.722 109.377 308.96 108.804 308.961 108.207V88.6692C308.96 88.0715 308.722 87.4985 308.3 87.0759C307.877 86.6533 307.304 86.4156 306.706 86.4149H287.169Z" fill="#F2F2F2"/>
<path d="M315.724 99.1893H296.186C295.19 99.1882 294.235 98.7919 293.531 98.0876C292.826 97.3832 292.43 96.4282 292.429 95.4321V75.8948C292.43 74.8987 292.826 73.9437 293.531 73.2394C294.235 72.535 295.19 72.1388 296.186 72.1377H315.724C316.72 72.1388 317.675 72.535 318.379 73.2394C319.083 73.9437 319.48 74.8987 319.481 75.8948V95.4321C319.48 96.4282 319.083 97.3832 318.379 98.0876C317.675 98.7919 316.72 99.1882 315.724 99.1893V99.1893ZM296.186 73.6405C295.589 73.6412 295.016 73.8789 294.593 74.3015C294.17 74.7241 293.933 75.2972 293.932 75.8948V95.4321C293.933 96.0298 294.17 96.6028 294.593 97.0254C295.016 97.4481 295.589 97.6858 296.186 97.6864H315.724C316.321 97.6858 316.894 97.4481 317.317 97.0254C317.74 96.6028 317.977 96.0298 317.978 95.4321V75.8948C317.977 75.2972 317.74 74.7241 317.317 74.3015C316.894 73.8789 316.321 73.6412 315.724 73.6405H296.186Z" fill="#F2F2F2"/>
<path d="M161.68 36.8203H142.142C141.146 36.8191 140.191 36.4229 139.487 35.7186C138.783 35.0142 138.386 34.0592 138.385 33.0631V13.5258C138.386 12.5297 138.783 11.5747 139.487 10.8704C140.191 10.166 141.146 9.76979 142.142 9.76865H161.68C162.676 9.76979 163.631 10.166 164.335 10.8704C165.039 11.5747 165.436 12.5297 165.437 13.5258V33.0631C165.436 34.0592 165.039 35.0142 164.335 35.7186C163.631 36.4229 162.676 36.8191 161.68 36.8203V36.8203ZM142.142 11.2715C141.545 11.2722 140.972 11.5099 140.549 11.9325C140.126 12.3551 139.889 12.9281 139.888 13.5258V33.0631C139.889 33.6608 140.126 34.2338 140.549 34.6564C140.972 35.079 141.545 35.3168 142.142 35.3174H161.68C162.277 35.3168 162.85 35.079 163.273 34.6564C163.696 34.2338 163.933 33.6608 163.934 33.0631V13.5258C163.933 12.9281 163.696 12.3551 163.273 11.9325C162.85 11.5099 162.277 11.2722 161.68 11.2715H142.142Z" fill="#F2F2F2"/>
<path d="M149.657 27.0516H130.119C129.123 27.0505 128.168 26.6543 127.464 25.9499C126.76 25.2455 126.363 24.2906 126.362 23.2945V3.75717C126.363 2.76106 126.76 1.80608 127.464 1.10172C128.168 0.39736 129.123 0.00113959 130.119 0H149.657C150.653 0.00113959 151.608 0.39736 152.312 1.10172C153.016 1.80608 153.413 2.76106 153.414 3.75717V23.2945C153.413 24.2906 153.016 25.2455 152.312 25.9499C151.608 26.6543 150.653 27.0505 149.657 27.0516V27.0516ZM130.119 1.50287C129.522 1.50352 128.949 1.74124 128.526 2.16386C128.103 2.58648 127.866 3.15949 127.865 3.75717V23.2945C127.866 23.8921 128.103 24.4651 128.526 24.8878C128.949 25.3104 129.522 25.5481 130.119 25.5488H149.657C150.254 25.5481 150.827 25.3104 151.25 24.8878C151.673 24.4651 151.91 23.8921 151.911 23.2945V3.75717C151.91 3.15949 151.673 2.58648 151.25 2.16386C150.827 1.74124 150.254 1.50352 149.657 1.50287H130.119Z" fill="#F2F2F2"/>
<path d="M241.376 142.5C244.06 142.5 246.235 140.324 246.235 137.64C246.235 134.956 244.06 132.781 241.376 132.781C238.692 132.781 236.517 134.956 236.517 137.64C236.517 140.324 238.692 142.5 241.376 142.5Z" fill="#F2F2F2"/>
<path d="M46.0031 125.217C48.6869 125.217 50.8626 123.041 50.8626 120.357C50.8626 117.674 48.6869 115.498 46.0031 115.498C43.3193 115.498 41.1437 117.674 41.1437 120.357C41.1437 123.041 43.3193 125.217 46.0031 125.217Z" fill="#F2F2F2"/>
<path d="M373.628 167.297C376.312 167.297 378.488 165.121 378.488 162.438C378.488 159.754 376.312 157.578 373.628 157.578C370.945 157.578 368.769 159.754 368.769 162.438C368.769 165.121 370.945 167.297 373.628 167.297Z" fill="#F2F2F2"/>
</svg>
